<svg xmlns="http://www.w3.org/2000/svg" width="143.368" height="44" viewBox="0 0 143.368 44"><g transform="translate(0 0)"><path d="M303.275,43.982a7.043,7.043,0,1,1-7.042-7.111,7.076,7.076,0,0,1,7.042,7.111" transform="translate(-159.908 -20.388)" fill="#8f409c"/><path d="M38.132,26.3c-6.438,0-7.4-5.584-7.4-11.169s.959-11.179,7.4-11.179,7.342,5.587,7.342,11.179S44.57,26.3,38.132,26.3m7.4-22.349C43.121.8,40.482.068,37.229.068a10.263,10.263,0,0,0-7.219,2.61c-2.944,2.98-3.6,7.6-3.6,12.457s.659,9.475,3.6,12.446a10.123,10.123,0,0,0,7.16,2.667,9.506,9.506,0,0,0,8.3-3.884v4.677c0,5.1-2.411,9.17-8.124,9.17-3.428,0-4.929-1.034-7.1-2.975l-2.827,2.8c3.124,2.848,5.594,4,10.043,4,7.763,0,12.331-5.4,12.331-12.811V.434h-4.27Zm-26.4,15.792c0,2.495-.485,4.188-1.507,5.163-1.862,1.822-4.083,2.005-6.616,2.005-4.694,0-6.794-1.64-6.794-5.106s2.166-5.286,6.615-5.286h8.3ZM11.611.068c-4.816,0-7.82.97-10.467,4.439L4.088,7.241c1.751-2.5,3.676-3.407,7.462-3.407,5.408,0,7.578,2.187,7.578,6.563v2.851H10.222C3.609,13.248,0,16.646,0,21.873a8.661,8.661,0,0,0,2.223,6.075c1.865,1.944,4.276,2.734,8.363,2.734,3.975,0,6.13-.789,8.541-3.223v2.857h4.329V10.028c0-6.5-3.912-9.96-11.846-9.96M118.727,13.491l-4.753-.422c-3.725-.306-5.166-1.823-5.166-4.374,0-3.037,2.278-4.922,6.607-4.922A12.6,12.6,0,0,1,123.3,6.141l2.827-2.851C123.476,1.1,119.691.068,115.481.068c-6.317,0-10.888,3.283-10.888,8.749,0,4.918,3.068,7.53,8.844,8.015l4.872.426c3.428.3,4.925,1.761,4.925,4.373,0,3.521-3,5.285-7.873,5.285-3.668,0-6.861-.972-9.2-3.463l-2.883,2.913c3.244,3.163,7.151,4.317,12.144,4.317,7.158,0,12.032-3.343,12.032-9.116,0-5.585-3.55-7.585-8.72-8.074" transform="translate(0 -0.037)" fill="#171714"/><path d="M162.783,19.711A9.434,9.434,0,0,1,162.1,23.7a5.276,5.276,0,0,1-2.61,2.419,9.96,9.96,0,0,1-3.964.755,14.949,14.949,0,0,1-3.909-.3,4.489,4.489,0,0,1-3.656-3.573,5.344,5.344,0,0,1,1.629-5.226,8.248,8.248,0,0,1,5.1-1.279h8.023a24.15,24.15,0,0,1,.065,3.224M123.746,8.232a7.61,7.61,0,0,1,9.56-4.046,7.267,7.267,0,0,1,4.08,3.618,13.419,13.419,0,0,1,1.095,5.405H122.842a14.883,14.883,0,0,1,.9-4.978m43.028-1.288a8.188,8.188,0,0,0-3.651-5.126A15,15,0,0,0,155.26.029c-3.343,0-6.67.544-9.178,2.972-.165.162-1.377,1.377-1.245,1.5l.891.824c.671.624,1.345,1.248,2.016,1.874a7.418,7.418,0,0,1,5.338-3.284c2.242-.3,4.956-.268,6.995.853a5.439,5.439,0,0,1,2.645,4.417c.042.4.1,4.019.053,4.019h-8.2a15.886,15.886,0,0,0-5.5.771c-2.6.936-4.543,3.078-6.273,5.159a38.694,38.694,0,0,1-4.558,5.229,9.91,9.91,0,0,1-3.884,2.142,11.46,11.46,0,0,1-4.167.229,7.767,7.767,0,0,1-5.144-2.668,10.814,10.814,0,0,1-2.148-6.138c-.038-.482-.055-.959-.055-1.445h19.971V14.545c0-4.366-1.115-9.119-4.608-12.008A12.465,12.465,0,0,0,126.246.791C122.2,2.319,119.873,6.156,119,10.263a26.257,26.257,0,0,0-.338,8.072,17.254,17.254,0,0,0,1.9,6.541,11.463,11.463,0,0,0,9.348,5.7,15.309,15.309,0,0,0,7.975-1.23,20.359,20.359,0,0,0,6.464-5.947c.256,2.025,1.124,4.432,2.761,5.57a10.1,10.1,0,0,0,4.961,1.583,17.835,17.835,0,0,0,6.247-.359,10.085,10.085,0,0,0,4.461-2.772v2.857h4.323V13.733a28.9,28.9,0,0,0-.333-6.788" transform="translate(-65.525 0)" fill="#171714"/></g></svg>