<svg width="278" height="135" viewBox="0 0 278 135" fill="none" xmlns="http://www.w3.org/2000/svg"><path d="M152.73 45.3521H142.246V69.5609L120.614 45.3521H109.856V84.6762H120.341V59.1562L143.232 84.6762H152.73V45.3521ZM80.9167 54.0024C88.1638 54.0024 93.5976 58.276 93.5976 65.0142C93.5976 71.7523 88.1638 76.0198 80.9167 76.0198C73.6696 76.0198 68.2358 71.7462 68.2358 65.0142C68.2358 58.2821 73.6696 54.0024 80.9167 54.0024ZM80.9167 44.6965C67.1345 44.6965 57.1979 53.2983 57.1979 65.0142C57.1979 76.7301 67.1345 85.3318 80.9167 85.3318C94.699 85.3318 104.581 76.7301 104.581 65.0142C104.581 53.2983 94.699 44.6965 80.9167 44.6965ZM51.9345 45.3521H41.1764V84.6762H51.9345V45.3521ZM0 84.6762H35.7974V75.5828H10.7642V45.3521H0.00608618V84.6762H0Z" fill="black"/></svg>
