<svg xmlns="http://www.w3.org/2000/svg" xmlns:xlink="http://www.w3.org/1999/xlink" id="Layer_1" x="0px" y="0px" viewBox="0 0 220 46" style="enable-background:new 0 0 220 46;" xml:space="preserve"><style type="text/css">	.st0{fill:#FFFFFF;}	.st1{fill:#E6ACAB;}</style><g>	<path class="st0" d="M34.6,1.4L23.1,27.2L11.7,1.4H0l19.2,42.2H27L46.2,1.4H34.5H34.6z"></path>	<path class="st0" d="M84.2,36.9c-4.4,4.9-10.6,7.6-17.2,7.5c-12.5,0-21.9-8.8-21.9-21.9c0-11.8,8-22,20.3-22  c12.4,0,19.8,9.9,19.8,21.6c0,1.1,0,2.1-0.2,3.3H56c0.6,5.8,5.5,10.2,11.2,10c4-0.1,7.9-1.9,10.6-4.8L84.2,36.9z M73.7,17  c-0.4-4.2-4-7.4-8.3-7.4c-4.4,0-8.2,3.1-9,7.4h17.2H73.7z"></path>	<path class="st0" d="M116.4,11.4c-1.3-0.3-2.7-0.4-4-0.4c-4.2,0.2-8.1,2.5-10.2,6.1v26.6H90.9V1.4h10.8v4.3  c2.6-3.1,7.2-5.2,12.2-5.2c1.2,0,2.6,0.1,3.8,0.3L116.4,11.4z"></path>	<path class="st0" d="M159.3,35c-4.3,6.2-11.5,9.8-19,9.6c-12.9,0-22.4-9.8-22.4-21.9c0-12.1,9.7-22.1,22.5-22.1  c6.9,0,13.4,3,17.5,8.4l-8,7.1c-2.2-3.1-5.8-5.1-9.7-5.1c-6.2,0-11.2,5.1-11.3,11.2c0,0.1,0,0.2,0,0.3c-0.2,6.2,4.6,11.2,10.7,11.5  c0.3,0,0.6,0,0.9,0c4,0,7.8-2.1,10-5.6l8.7,6.5L159.3,35z"></path>	<path class="st0" d="M183,0.5c12.1-0.2,22,9.4,22.2,21.6c0,0.2,0,0.3,0,0.6c-0.1,12.2-10.2,22.1-22.5,22c-12.1-0.1-21.9-9.9-22-22  c-0.1-12.1,9.7-22.1,21.8-22.1c0.2,0,0.3,0,0.6,0 M183,34.1c6.5,0,11-5.2,11-11.5c0-6.3-4.5-11.6-11-11.6s-11,5.3-11,11.6  C172,28.9,176.5,34.1,183,34.1z"></path>	<path class="st1" d="M220,39.2c0-3.4-2.8-6.2-6.3-6.2c-3.4,0-6.2,2.8-6.2,6.3c0,3.4,2.8,6.2,6.2,6.2c3.5,0,6.2-2.8,6.2-6.3"></path></g></svg>